<svg version="1.1" id="Layer_1" xmlns="http://www.w3.org/2000/svg" xmlns:xlink="http://www.w3.org/1999/xlink" x="0px" y="0px"
	 width="100%" viewBox="0 0 442 243" enable-background="new 0 0 442 243" xml:space="preserve">
<path fill="#212C95" opacity="1.000000" stroke="none" 
	d="
M287.000000,244.000000 
	C191.333344,244.000000 96.166702,244.000000 1.000038,244.000000 
	C1.000026,163.000031 1.000026,82.000061 1.000013,1.000071 
	C148.333267,1.000047 295.666534,1.000047 442.999878,1.000024 
	C442.999908,81.999931 442.999908,162.999863 442.999939,243.999893 
	C391.166656,244.000000 339.333344,244.000000 287.000000,244.000000 
M38.395267,187.419830 
	C38.950691,187.601273 39.506115,187.782715 39.995960,187.977798 
	C39.995960,187.977798 40.034466,187.922974 40.235855,188.703079 
	C42.400635,189.132736 44.565228,189.937317 46.730221,189.938385 
	C169.022873,189.998947 291.315552,189.992569 413.608215,189.992722 
	C414.607880,189.992722 415.608124,189.968826 416.607117,189.994736 
	C420.400299,190.093063 422.005432,188.181458 422.003418,184.469849 
	C421.979279,139.984665 422.006744,95.499413 421.910065,51.014427 
	C421.907166,49.676373 420.701508,48.340931 419.384186,46.509708 
	C417.571106,46.370476 415.758148,46.112228 413.944885,46.110065 
	C391.118774,46.082802 368.292664,46.108009 345.466522,46.089256 
	C307.979980,46.058460 270.493469,46.005283 232.906876,45.407166 
	C232.585266,45.121117 232.263672,44.835072 231.942062,44.549030 
	C231.625427,45.030655 231.308792,45.512280 230.456451,46.140217 
	C230.272598,46.161743 230.088760,46.183266 229.436356,46.188587 
	C229.436356,46.188587 229.009140,46.000790 228.378815,45.454529 
	C226.407715,45.300327 224.436691,45.012264 222.465515,45.011410 
	C166.592422,44.987232 110.719299,45.005318 54.846222,44.958324 
	C51.553204,44.955555 48.259068,44.273293 44.968544,44.299248 
	C43.656338,44.309597 42.352531,45.384819 40.588364,46.251225 
	C40.349792,46.513607 40.111221,46.775990 39.259525,47.206539 
	C39.171024,48.953896 39.005951,50.701218 39.005234,52.448608 
	C38.987827,94.690163 39.003014,136.931732 38.943798,179.173218 
	C38.940590,181.462891 38.341099,183.751694 37.734901,186.210388 
	C37.539307,186.541840 37.634579,186.789978 38.395267,187.419830 
z"/>
<path fill="#090A17" opacity="1.000000" stroke="none" 
	d="
M229.904938,46.204792 
	C230.088760,46.183266 230.272598,46.161743 231.059555,46.113918 
	C232.110748,46.045593 232.558838,46.003567 233.006927,45.961540 
	C270.493469,46.005283 307.979980,46.058460 345.466522,46.089256 
	C368.292664,46.108009 391.118774,46.082802 413.944885,46.110065 
	C415.758148,46.112228 417.571106,46.370476 419.691406,47.224216 
	C419.998505,92.704300 419.978210,137.469910 420.037598,182.235413 
	C420.042267,185.742599 419.999115,188.139160 415.199341,188.125763 
	C353.460693,187.953415 291.721558,187.967941 230.000519,187.510101 
	C229.959106,185.386551 229.899689,183.688049 229.915024,181.752655 
	C229.989761,181.515778 230.051849,181.022812 230.448547,180.965973 
	C252.448578,180.792892 274.051971,180.571213 295.655212,180.584015 
	C332.223022,180.605698 368.790802,180.781143 405.358582,180.878098 
	C412.058136,180.895859 412.083405,180.865479 412.084290,174.272049 
	C412.089294,136.137726 411.990540,98.002922 412.187958,59.869633 
	C412.213928,54.853367 410.494537,53.866856 405.873291,53.878986 
	C349.754059,54.026253 293.634308,53.976994 237.514709,53.992188 
	C235.688049,53.992683 233.861420,54.135391 231.683914,54.171700 
	C230.864532,54.084927 230.396011,54.038261 229.961365,53.659389 
	C229.942200,52.887680 229.889145,52.448174 229.908051,51.594856 
	C229.954987,49.522293 229.929962,47.863541 229.904938,46.204792 
z"/>
<path fill="#E7E7F3" opacity="1.000000" stroke="none" 
	d="
M229.840286,181.989548 
	C229.899689,183.688049 229.959106,185.386551 229.534576,187.568207 
	C186.324814,188.057571 143.598984,188.079849 100.873154,188.062912 
	C80.593575,188.054871 60.314030,187.971970 40.034466,187.922974 
	C40.034466,187.922974 39.995960,187.977798 39.994690,187.505890 
	C39.953159,140.368790 39.912903,93.703575 39.872646,47.038368 
	C40.111221,46.775990 40.349792,46.513607 41.271076,46.212715 
	C103.480537,46.189617 165.007278,46.205883 226.534027,46.211292 
	C227.359070,46.211365 228.184097,46.074009 229.009140,46.000793 
	C229.009140,46.000790 229.436356,46.188587 229.670654,46.196690 
	C229.929962,47.863541 229.954987,49.522293 229.526276,51.592651 
	C225.597992,52.001568 222.123428,51.996578 218.648865,51.996548 
	C163.553223,51.996052 108.457581,51.994576 53.361935,52.003960 
	C51.704140,52.004242 50.040470,52.069534 48.398144,52.262718 
	C48.242363,52.281044 48.220440,53.437347 48.073746,54.526173 
	C48.001160,95.263214 47.967762,135.539474 48.067329,175.815399 
	C48.071297,177.418777 49.338837,179.019043 50.147499,180.883209 
	C51.563419,180.955154 52.849476,180.764664 54.447418,180.471832 
	C55.179581,180.473648 55.599861,180.577789 56.218842,180.988586 
	C62.219593,181.478073 68.021523,181.667023 73.824837,181.790909 
	C73.920532,181.792938 74.033142,181.002182 74.448387,180.476181 
	C75.179291,180.473282 75.599663,180.575577 76.218338,180.984985 
	C82.220451,181.474884 88.024117,181.663635 93.829170,181.787415 
	C93.922462,181.789398 94.032715,180.996368 94.447006,180.471924 
	C95.179352,180.473633 95.599754,180.577774 96.218842,180.988586 
	C102.219597,181.478088 108.021523,181.667053 113.824844,181.790894 
	C113.920532,181.792938 114.033150,181.002182 114.448395,180.476181 
	C115.179291,180.473282 115.599663,180.575577 116.218338,180.984985 
	C122.220451,181.474869 128.024124,181.663605 133.829163,181.787430 
	C133.922424,181.789413 134.032654,180.996368 134.446930,180.471924 
	C135.179306,180.473633 135.599731,180.577774 136.218842,180.988571 
	C142.219589,181.478073 148.021500,181.667038 153.824829,181.790894 
	C153.920502,181.792923 154.033081,181.002182 154.448303,180.476181 
	C155.179245,180.473267 155.599640,180.575577 156.218353,180.984985 
	C162.220444,181.474869 168.024124,181.663605 173.829163,181.787430 
	C173.922440,181.789413 174.032669,180.996368 174.446930,180.471924 
	C175.179306,180.473633 175.599731,180.577774 176.218842,180.988571 
	C182.219589,181.478073 188.021500,181.667038 193.824829,181.790894 
	C193.920502,181.792923 194.033081,181.002182 194.448303,180.476166 
	C195.179245,180.473267 195.599640,180.575577 196.218353,180.984985 
	C202.220444,181.474854 208.024124,181.663605 213.829163,181.787430 
	C213.922440,181.789413 214.032669,180.996368 214.446930,180.471924 
	C215.179306,180.473633 215.599716,180.577774 216.217209,180.987152 
	C220.889618,181.524765 225.364960,181.757156 229.840286,181.989548 
z"/>
<path fill="#29307F" opacity="1.000000" stroke="none" 
	d="
M40.135162,188.313019 
	C60.314030,187.971970 80.593575,188.054871 100.873154,188.062912 
	C143.598984,188.079849 186.324814,188.057571 229.516602,187.993271 
	C291.721558,187.967941 353.460693,187.953415 415.199341,188.125763 
	C419.999115,188.139160 420.042267,185.742599 420.037598,182.235413 
	C419.978210,137.469910 419.998505,92.704300 420.027618,47.471497 
	C420.701508,48.340931 421.907166,49.676373 421.910065,51.014427 
	C422.006744,95.499413 421.979279,139.984665 422.003418,184.469849 
	C422.005432,188.181458 420.400299,190.093063 416.607117,189.994736 
	C415.608124,189.968826 414.607880,189.992722 413.608215,189.992722 
	C291.315552,189.992569 169.022873,189.998947 46.730221,189.938385 
	C44.565228,189.937317 42.400635,189.132736 40.135162,188.313019 
z"/>
<path fill="#29307F" opacity="1.000000" stroke="none" 
	d="
M228.693970,45.727661 
	C228.184097,46.074009 227.359070,46.211365 226.534027,46.211292 
	C165.007278,46.205883 103.480537,46.189617 41.499344,46.074745 
	C42.352531,45.384819 43.656338,44.309597 44.968544,44.299248 
	C48.259068,44.273293 51.553204,44.955555 54.846222,44.958324 
	C110.719299,45.005318 166.592422,44.987232 222.465515,45.011410 
	C224.436691,45.012264 226.407715,45.300327 228.693970,45.727661 
z"/>
<path fill="#283071" opacity="1.000000" stroke="none" 
	d="
M39.566086,47.122452 
	C39.912903,93.703575 39.953159,140.368790 40.027481,187.499084 
	C39.506115,187.782715 38.950691,187.601273 38.206779,186.959091 
	C38.018288,186.498352 38.019173,186.040909 38.019173,186.040909 
	C38.341099,183.751694 38.940590,181.462891 38.943798,179.173218 
	C39.003014,136.931732 38.987827,94.690163 39.005234,52.448608 
	C39.005951,50.701218 39.171024,48.953896 39.566086,47.122452 
z"/>
<path fill="#29307F" opacity="1.000000" stroke="none" 
	d="
M232.956909,45.684353 
	C232.558838,46.003567 232.110748,46.045593 231.327393,46.040764 
	C231.308792,45.512280 231.625427,45.030655 231.942062,44.549026 
	C232.263672,44.835072 232.585266,45.121117 232.956909,45.684353 
z"/>
<path fill="#29307F" opacity="1.000000" stroke="none" 
	d="
M37.877037,186.125641 
	C38.019173,186.040909 38.018288,186.498352 38.019508,186.726562 
	C37.634579,186.789978 37.539307,186.541840 37.877037,186.125641 
z"/>
<path fill="#222D94" opacity="1.000000" stroke="none" 
	d="
M229.927490,53.991592 
	C230.396011,54.038261 230.864532,54.084927 232.017776,54.399712 
	C234.686325,54.785976 236.670120,55.006676 238.653976,55.007339 
	C293.460785,55.025661 348.267609,55.020718 403.074432,55.022434 
	C409.991974,55.022648 410.979492,55.919518 410.983978,62.675030 
	C411.008118,99.157356 411.004852,135.639694 410.988770,172.122040 
	C410.986115,178.169830 410.105865,179.008286 403.985321,179.008499 
	C287.874878,179.012558 171.764420,179.012009 55.653965,179.006500 
	C49.078941,179.006195 49.012714,178.932404 49.011051,172.254333 
	C49.001957,135.772003 49.001213,99.289658 48.999207,62.807323 
	C48.998779,55.010117 49.001877,54.991039 56.607494,55.006851 
	C113.401375,55.124935 170.195221,55.255230 226.989151,55.327263 
	C227.678207,55.328136 228.368179,54.612682 229.268036,54.145737 
	C229.478348,54.059872 229.927490,53.991592 229.927490,53.991592 
M291.096069,126.909027 
	C291.096069,126.909027 291.119049,126.803741 291.278503,127.308441 
	C291.547028,127.527351 291.815582,127.746262 292.011383,127.987038 
	C292.011383,127.987038 292.053894,127.924118 292.005402,128.668213 
	C291.735565,130.795227 291.465729,132.922241 291.318207,135.740479 
	C295.417633,140.148926 300.550934,140.029984 305.528168,138.254074 
	C310.744354,136.392929 311.461731,131.725677 311.291260,126.751007 
	C311.116211,121.641533 311.252472,116.521400 311.252472,111.194389 
	C309.614624,111.118889 308.314240,111.058945 306.242706,110.979546 
	C305.472076,111.003197 304.701447,111.026848 303.981354,111.004410 
	C303.981354,111.004410 303.980072,111.072777 303.510620,110.555328 
	C302.840149,110.438530 302.169678,110.321724 301.226501,110.320526 
	C301.226501,110.320526 300.995575,110.135078 300.463013,109.575066 
	C298.131256,109.230331 295.414520,107.442200 294.151764,111.158119 
	C294.151764,111.158119 294.247955,111.176003 293.727844,111.298538 
	C293.490967,111.555260 293.254059,111.811981 292.802338,112.495842 
	C292.589203,112.749062 292.321869,112.914902 291.560638,113.245613 
	C291.391418,113.532005 291.222229,113.818405 291.019104,114.030846 
	C291.019104,114.030846 291.095459,114.058952 290.356110,114.189957 
	C286.955841,117.694443 286.751617,121.296127 290.233582,125.189339 
	C290.233582,125.189339 290.201538,125.465080 290.322876,126.073822 
	C290.616516,126.352829 290.910156,126.631836 291.096069,126.909027 
M380.382904,138.433792 
	C380.748779,138.586166 381.114655,138.738525 381.777954,138.809250 
	C381.777954,138.809250 381.989563,139.033646 382.282288,139.427032 
	C382.849487,139.369827 383.416687,139.312622 384.793457,139.150192 
	C385.877167,139.205917 386.960907,139.261642 388.502472,139.654938 
	C389.337250,139.461060 390.172058,139.267166 391.262268,138.847336 
	C391.262268,138.847336 391.600586,138.890060 392.434784,138.940170 
	C396.841095,138.823486 398.443237,136.476959 397.343872,132.001053 
	C397.268860,131.656052 397.364716,131.368042 398.264099,130.626144 
	C398.114136,124.407036 397.964203,118.187927 397.341461,111.453293 
	C393.479614,111.040527 389.528564,109.944710 385.784454,110.433601 
	C382.849335,110.816841 379.317657,112.496292 377.546967,114.766640 
	C373.263275,120.259087 376.452667,125.270287 379.793335,130.522369 
	C379.566040,131.419434 379.338745,132.316498 378.993317,133.644577 
	C378.839539,133.927383 378.604004,134.095688 377.767029,134.316589 
	C377.534882,134.589417 377.302734,134.862244 377.060974,135.690201 
	C377.375397,136.120117 377.689789,136.550034 378.372528,137.445801 
	C378.926880,137.625397 379.481232,137.804993 380.004059,138.007370 
	C380.004059,138.007370 380.004608,137.968491 380.382904,138.433792 
M261.804657,125.729134 
	C261.514221,125.545563 261.271942,125.609604 260.962097,126.604591 
	C261.407654,127.687439 261.853210,128.770294 262.863983,129.889481 
	C263.229309,129.983902 263.594666,130.078323 264.249817,130.901367 
	C269.158112,131.183746 274.064697,131.540817 278.976868,131.653214 
	C279.585327,131.667130 280.223511,130.379852 280.861511,129.837387 
	C280.861511,129.837387 280.726105,129.792999 281.344635,129.822983 
	C281.218414,128.883698 281.092194,127.944420 280.711914,126.560478 
	C280.483276,126.307343 280.254639,126.054214 279.749023,125.077614 
	C274.496307,125.271263 269.243622,125.464920 263.388214,125.840729 
	C262.985626,125.958183 262.583069,126.075645 262.068665,126.094093 
	C262.068665,126.094093 261.964111,125.987434 261.804657,125.729134 
M190.135834,129.912384 
	C190.135834,129.912384 190.173828,129.774078 190.181091,130.464844 
	C192.045685,133.196762 193.758698,134.250046 195.288345,129.270416 
	C195.288345,124.673874 195.288345,120.077332 195.288345,117.015114 
	C197.794785,114.895401 199.226410,113.684677 201.687256,111.603516 
	C198.407547,111.062103 196.993195,110.828629 195.565704,110.592972 
	C195.393661,107.950035 195.235916,105.526688 195.059372,102.814568 
	C193.077438,102.911133 191.468323,102.989525 191.005905,103.012054 
	C189.836487,105.965179 188.753403,108.146980 188.140533,110.453705 
	C187.767761,111.856743 187.893204,113.502792 188.212219,114.947510 
	C188.524216,116.360359 189.366028,117.656219 189.444656,119.616035 
	C189.722687,123.052238 190.000702,126.488449 190.135834,129.912384 
M114.034027,99.807312 
	C114.023186,107.969269 113.946144,116.132065 114.050827,124.292542 
	C114.075165,126.189766 114.718224,128.079041 115.559555,130.566528 
	C119.240181,131.971146 120.797836,130.731796 120.630798,126.783691 
	C120.564293,125.211830 121.182106,123.611015 121.574753,121.575699 
	C126.078339,124.368668 125.929886,132.275421 133.369965,129.508240 
	C131.022736,125.877632 128.731689,122.333923 126.426109,118.767723 
	C128.733124,116.786011 130.694260,115.101425 132.655380,113.416832 
	C132.550354,112.891983 132.445343,112.367134 132.340317,111.842285 
	C130.686722,111.981483 129.033127,112.120689 126.581940,112.190720 
	C125.927284,112.994011 125.272636,113.797302 124.064911,115.062103 
	C123.472786,115.465576 122.880661,115.869049 122.126694,115.166351 
	C122.057587,109.686317 121.950607,104.206413 121.931267,98.726196 
	C121.915581,94.280998 120.025230,92.977821 116.000000,95.000000 
	C116.000000,95.000000 115.994453,94.995018 115.309334,95.118179 
	C114.898453,96.362915 114.487572,97.607643 114.034027,99.807312 
M363.023285,129.987183 
	C363.023285,129.987183 363.041443,129.906403 363.170258,130.613678 
	C366.913727,132.541702 369.500366,131.116852 369.532104,127.177383 
	C369.556732,124.120590 369.995087,121.036629 369.695923,118.019630 
	C369.527374,116.320023 368.237762,114.731583 366.972565,112.642006 
	C362.703552,108.695702 358.634369,110.014206 354.709900,113.113495 
	C354.118561,112.327736 353.556671,111.581146 352.385406,110.381783 
	C348.934204,109.252327 347.874634,110.815475 347.971863,114.077423 
	C348.095764,118.236221 347.864624,122.408592 348.078278,126.560089 
	C348.152649,128.005157 348.952728,130.511826 349.669830,130.604187 
	C351.346405,130.820114 353.173492,129.867523 354.585449,128.608597 
	C354.881042,125.027443 354.630280,121.283897 355.632355,117.912750 
	C356.556274,114.804565 359.034088,113.012077 362.067810,117.363327 
	C362.413483,121.575935 362.759186,125.788536 363.023285,129.987183 
M214.304337,117.213303 
	C219.129700,114.581329 220.883377,115.471794 220.961670,120.619690 
	C221.008743,123.715126 221.012100,126.811226 221.352005,130.537781 
	C223.153122,132.232346 224.847961,133.154999 226.052048,129.460175 
	C226.052048,129.460175 226.194992,129.033508 226.813797,128.838745 
	C227.203186,124.845261 227.814377,120.853752 227.850128,116.857101 
	C227.861206,115.618050 226.309494,114.365013 225.003601,112.666275 
	C222.480835,111.842903 219.958054,111.019531 216.562531,110.052467 
	C215.698212,108.273674 214.621384,106.563797 214.017212,104.700653 
	C212.998825,101.560059 215.984344,97.560226 211.485184,94.977104 
	C211.485184,94.977104 211.007797,94.866646 210.544342,94.420792 
	C209.181030,93.890137 207.378113,91.880844 207.310760,95.940254 
	C207.246170,96.291206 207.181564,96.642166 206.544388,97.602943 
	C206.373413,107.013550 206.166473,116.423836 206.082001,125.835213 
	C206.072586,126.883156 206.760178,127.937340 207.371078,129.377365 
	C207.554245,129.625534 207.763519,129.849304 208.199631,130.735001 
	C211.482544,133.020050 213.460007,131.674072 213.861588,128.209564 
	C214.255035,124.815346 213.952881,121.340508 214.304337,117.213303 
M87.097603,99.076439 
	C80.672600,99.427544 74.215294,99.504562 67.837532,100.256424 
	C65.048035,100.585274 62.666569,102.361099 62.757435,106.006645 
	C62.935406,113.146828 62.881752,120.292458 62.984943,127.434959 
	C63.051548,132.045197 65.718681,134.653473 70.056580,134.886322 
	C76.685455,135.242157 83.348213,135.202805 89.988518,135.026840 
	C94.441612,134.908859 97.109169,132.260757 97.368385,127.812828 
	C97.696587,122.181320 97.827736,116.525978 97.742111,110.885490 
	C97.598824,101.447357 97.443733,101.383232 87.097603,99.076439 
M141.149933,113.797585 
	C137.192917,121.033257 138.923767,128.355667 145.372757,129.744339 
	C150.088593,130.759811 155.054840,130.612289 160.077774,130.996002 
	C160.077774,124.065521 160.077774,117.673958 160.077774,111.405342 
	C157.532379,111.405342 155.047775,112.037025 153.108139,111.277336 
	C148.710587,109.554962 145.037674,110.007431 141.149933,113.797585 
M336.008453,111.291740 
	C334.787292,111.216240 333.471100,111.409370 332.362091,111.016937 
	C328.384705,109.609467 324.739807,109.988098 321.767761,113.033447 
	C318.546906,116.333725 318.297729,120.320961 319.665527,124.601112 
	C321.006073,128.796158 324.311218,130.218552 328.116913,130.266434 
	C331.969574,130.314911 335.831635,129.614655 340.193939,129.193680 
	C340.193939,125.176872 340.194641,120.720299 340.193390,116.263733 
	C340.193085,115.266998 340.576691,113.968178 340.092896,113.342468 
	C339.316315,112.338081 337.963837,111.779015 336.008453,111.291740 
M239.846405,111.090790 
	C233.756104,114.773804 231.916840,120.428917 235.085617,125.728661 
	C238.116272,130.797409 244.224167,131.866714 250.299332,128.381973 
	C249.614426,123.104362 244.940613,125.865005 241.054382,124.307770 
	C245.995392,122.042587 249.933548,120.237152 253.852570,118.440498 
	C251.321350,111.240097 247.858170,109.280937 239.846405,111.090790 
M176.569763,117.002556 
	C178.327377,115.511124 180.085007,114.019699 182.747223,111.760658 
	C179.548737,111.054489 178.045380,110.722572 176.600983,110.403671 
	C176.472977,107.771049 176.362167,105.492149 176.243195,103.045563 
	C175.175735,102.946327 174.370193,102.771126 173.580963,102.826859 
	C172.822357,102.880424 172.080612,103.173073 171.848343,103.231239 
	C171.229263,105.869438 171.368973,108.578819 170.090729,110.084137 
	C166.646881,114.139717 166.521729,114.767647 170.866699,116.809952 
	C171.057831,121.111282 171.242554,125.268295 171.437866,129.663727 
	C173.165482,129.663727 174.665894,129.663727 176.452682,129.663727 
	C176.452682,125.514030 176.452682,121.707939 176.569763,117.002556 
z"/>
<path fill="#272E72" opacity="1.000000" stroke="none" 
	d="
M229.057739,54.231598 
	C228.368179,54.612682 227.678207,55.328136 226.989151,55.327263 
	C170.195221,55.255230 113.401375,55.124935 56.607494,55.006851 
	C49.001877,54.991039 48.998779,55.010117 48.999207,62.807323 
	C49.001213,99.289658 49.001957,135.772003 49.011051,172.254333 
	C49.012714,178.932404 49.078941,179.006195 55.653965,179.006500 
	C171.764420,179.012009 287.874878,179.012558 403.985321,179.008499 
	C410.105865,179.008286 410.986115,178.169830 410.988770,172.122040 
	C411.004852,135.639694 411.008118,99.157356 410.983978,62.675030 
	C410.979492,55.919518 409.991974,55.022648 403.074432,55.022434 
	C348.267609,55.020718 293.460785,55.025661 238.653976,55.007339 
	C236.670120,55.006676 234.686325,54.785976 232.368637,54.439816 
	C233.861420,54.135391 235.688049,53.992683 237.514709,53.992188 
	C293.634308,53.976994 349.754059,54.026253 405.873291,53.878986 
	C410.494537,53.866856 412.213928,54.853367 412.187958,59.869633 
	C411.990540,98.002922 412.089294,136.137726 412.084290,174.272049 
	C412.083405,180.865479 412.058136,180.895859 405.358582,180.878098 
	C368.790802,180.781143 332.223022,180.605698 295.655212,180.584015 
	C274.051971,180.571213 252.448578,180.792892 230.140152,180.681030 
	C224.963409,180.529251 220.491760,180.605591 216.020126,180.681915 
	C215.599716,180.577774 215.179306,180.473633 213.980972,180.358887 
	C207.475372,180.458160 201.747711,180.568024 196.020035,180.677887 
	C195.599640,180.575577 195.179245,180.473267 193.981567,180.366119 
	C187.476242,180.468170 181.748184,180.575043 176.020142,180.681915 
	C175.599731,180.577774 175.179306,180.473633 173.980972,180.358887 
	C167.475372,180.458160 161.747711,180.568024 156.020035,180.677887 
	C155.599640,180.575577 155.179245,180.473267 153.981567,180.366135 
	C147.476242,180.468170 141.748184,180.575043 136.020142,180.681915 
	C135.599731,180.577774 135.179306,180.473633 133.980972,180.358887 
	C127.475372,180.458145 121.747704,180.568024 116.020027,180.677887 
	C115.599663,180.575577 115.179291,180.473282 113.981636,180.366150 
	C107.476288,180.468185 101.748215,180.575058 96.020149,180.681915 
	C95.599754,180.577774 95.179352,180.473633 93.981033,180.358887 
	C87.475418,180.458160 81.747719,180.568024 76.020027,180.677887 
	C75.599663,180.575577 75.179291,180.473282 73.981636,180.366150 
	C67.476280,180.468170 61.748215,180.575043 56.020142,180.681915 
	C55.599861,180.577789 55.179581,180.473648 54.043594,180.358612 
	C52.224476,180.438736 51.121059,180.529755 50.017639,180.620758 
	C49.338837,179.019043 48.071297,177.418777 48.067329,175.815399 
	C47.967762,135.539474 48.001160,95.263214 48.533409,54.520561 
	C102.411705,54.053196 155.767700,54.046005 209.123703,54.059353 
	C215.768402,54.061016 222.413055,54.171528 229.057739,54.231598 
z"/>
<path fill="#EBF0FC" opacity="1.000000" stroke="none" 
	d="
M229.268036,54.145737 
	C222.413055,54.171528 215.768402,54.061016 209.123703,54.059353 
	C155.767700,54.046005 102.411705,54.053196 48.596039,54.059723 
	C48.220440,53.437347 48.242363,52.281044 48.398144,52.262718 
	C50.040470,52.069534 51.704140,52.004242 53.361935,52.003960 
	C108.457581,51.994576 163.553223,51.996052 218.648865,51.996548 
	C222.123428,51.996578 225.597992,52.001568 229.454315,52.006462 
	C229.889145,52.448174 229.942200,52.887680 229.961365,53.659389 
	C229.927490,53.991592 229.478348,54.059872 229.268036,54.145737 
z"/>
<path fill="#EBF1FE" opacity="1.000000" stroke="none" 
	d="
M216.217209,180.987152 
	C220.491760,180.605591 224.963409,180.529251 229.743439,180.737869 
	C230.051849,181.022812 229.989761,181.515778 229.915024,181.752655 
	C225.364960,181.757156 220.889618,181.524765 216.217209,180.987152 
z"/>
<path fill="#EBF1FE" opacity="1.000000" stroke="none" 
	d="
M116.218338,180.984985 
	C121.747704,180.568024 127.475372,180.458145 133.669006,180.461304 
	C134.032654,180.996368 133.922424,181.789413 133.829163,181.787430 
	C128.024124,181.663605 122.220451,181.474869 116.218338,180.984985 
z"/>
<path fill="#EBF1FE" opacity="1.000000" stroke="none" 
	d="
M96.218842,180.988586 
	C101.748215,180.575058 107.476288,180.468185 113.671112,180.471344 
	C114.033150,181.002182 113.920532,181.792938 113.824844,181.790894 
	C108.021523,181.667053 102.219597,181.478088 96.218842,180.988586 
z"/>
<path fill="#EBF1FE" opacity="1.000000" stroke="none" 
	d="
M76.218338,180.985001 
	C81.747719,180.568024 87.475418,180.458160 93.669083,180.461304 
	C94.032715,180.996368 93.922462,181.789398 93.829170,181.787415 
	C88.024117,181.663635 82.220451,181.474884 76.218338,180.985001 
z"/>
<path fill="#EBF1FE" opacity="1.000000" stroke="none" 
	d="
M56.218842,180.988571 
	C61.748215,180.575043 67.476280,180.468170 73.671104,180.471344 
	C74.033142,181.002182 73.920532,181.792938 73.824837,181.790909 
	C68.021523,181.667023 62.219593,181.478073 56.218842,180.988571 
z"/>
<path fill="#EBF1FE" opacity="1.000000" stroke="none" 
	d="
M136.218842,180.988571 
	C141.748184,180.575043 147.476242,180.468170 153.671021,180.471344 
	C154.033081,181.002182 153.920502,181.792923 153.824829,181.790894 
	C148.021500,181.667038 142.219589,181.478073 136.218842,180.988571 
z"/>
<path fill="#EBF1FE" opacity="1.000000" stroke="none" 
	d="
M156.218353,180.984985 
	C161.747711,180.568024 167.475372,180.458160 173.669006,180.461304 
	C174.032669,180.996368 173.922440,181.789413 173.829163,181.787430 
	C168.024124,181.663605 162.220444,181.474869 156.218353,180.984985 
z"/>
<path fill="#EBF1FE" opacity="1.000000" stroke="none" 
	d="
M196.218353,180.984985 
	C201.747711,180.568024 207.475372,180.458160 213.669006,180.461304 
	C214.032669,180.996368 213.922440,181.789413 213.829163,181.787430 
	C208.024124,181.663605 202.220444,181.474854 196.218353,180.984985 
z"/>
<path fill="#EBF1FE" opacity="1.000000" stroke="none" 
	d="
M176.218842,180.988571 
	C181.748184,180.575043 187.476242,180.468170 193.671021,180.471344 
	C194.033081,181.002182 193.920502,181.792923 193.824829,181.790894 
	C188.021500,181.667038 182.219589,181.478073 176.218842,180.988571 
z"/>
<path fill="#EBF1FE" opacity="1.000000" stroke="none" 
	d="
M50.147499,180.883209 
	C51.121059,180.529755 52.224476,180.438736 53.731712,180.460953 
	C52.849476,180.764664 51.563419,180.955154 50.147499,180.883209 
z"/>
<path fill="#E5E8F6" opacity="1.000000" stroke="none" 
	d="
M380.063171,129.870239 
	C376.452667,125.270287 373.263275,120.259087 377.546967,114.766640 
	C379.317657,112.496292 382.849335,110.816841 385.784454,110.433601 
	C389.528564,109.944710 393.479614,111.040527 397.453247,112.167320 
	C397.587189,118.966568 397.609314,125.051788 397.631439,131.137009 
	C397.364716,131.368042 397.268860,131.656052 397.268005,132.388184 
	C395.328278,134.813553 393.464417,136.851791 391.600586,138.890045 
	C391.600586,138.890060 391.262268,138.847336 390.760956,138.939301 
	C389.521301,139.126633 388.782959,139.222000 388.044617,139.317368 
	C386.960907,139.261642 385.877167,139.205917 384.065613,139.100342 
	C382.888367,139.044891 382.438965,139.039276 381.989563,139.033646 
	C381.989563,139.033646 381.777954,138.809250 381.468262,138.584137 
	C380.773926,138.228836 380.389282,138.098663 380.004608,137.968491 
	C380.004608,137.968491 380.004059,138.007370 379.846863,137.740417 
	C379.127838,137.308960 378.566010,137.144455 378.004211,136.979950 
	C377.689789,136.550034 377.375397,136.120117 377.329681,135.330566 
	C377.827820,134.697128 378.057251,134.423325 378.286652,134.149506 
	C378.604004,134.095688 378.839539,133.927383 379.427917,133.319809 
	C381.213806,133.498108 382.552307,134.039230 383.918640,134.497543 
	C389.361053,136.323105 392.682373,133.677750 392.393860,129.161484 
	C388.246368,129.399887 384.154785,129.635071 380.063171,129.870239 
M388.956573,125.878548 
	C393.178040,123.174217 394.341949,118.694145 390.943542,116.306931 
	C389.144043,115.042839 385.719940,114.536285 383.841827,115.418190 
	C382.264160,116.159035 380.968506,119.478531 381.134399,121.527962 
	C381.445526,125.371162 384.576996,126.423759 388.956573,125.878548 
z"/>
<path fill="#E4E8F6" opacity="1.000000" stroke="none" 
	d="
M290.201538,125.465073 
	C290.201538,125.465080 290.233582,125.189339 290.119629,124.708649 
	C290.368927,120.838287 290.732208,117.448624 291.095459,114.058952 
	C291.095459,114.058952 291.019104,114.030846 291.274628,113.963150 
	C291.686890,113.594757 291.843628,113.294052 292.000336,112.993347 
	C292.321869,112.914902 292.589203,112.749062 293.177216,112.229828 
	C293.784058,111.701218 294.016022,111.438614 294.247955,111.176010 
	C294.247955,111.176003 294.151764,111.158119 294.546753,111.134415 
	C296.959686,110.785492 298.977631,110.460289 300.995575,110.135078 
	C300.995575,110.135078 301.226501,110.320526 301.609436,110.498474 
	C302.654938,110.808540 303.317505,110.940659 303.980072,111.072777 
	C303.980072,111.072777 303.981354,111.004410 304.098907,111.260452 
	C305.148926,111.343994 306.081390,111.171501 307.013855,110.999001 
	C308.314240,111.058945 309.614624,111.118889 311.252472,111.194389 
	C311.252472,116.521400 311.116211,121.641533 311.291260,126.751007 
	C311.461731,131.725677 310.744354,136.392929 305.528168,138.254074 
	C300.550934,140.029984 295.417633,140.148926 291.563477,135.227539 
	C293.421143,131.696167 295.356140,133.676102 297.234009,134.342621 
	C302.923859,136.362137 306.485931,133.701996 305.473389,128.112961 
	C300.947052,131.204056 296.468658,131.106125 292.053894,127.924118 
	C292.053894,127.924118 292.011383,127.987038 291.978882,127.715271 
	C291.670624,127.230255 291.394836,127.016998 291.119049,126.803741 
	C291.119049,126.803741 291.096069,126.909027 291.074402,126.610840 
	C290.768982,126.030136 290.485260,125.747604 290.201538,125.465073 
M306.182983,119.713631 
	C305.712280,115.547752 302.954437,113.527222 299.355347,114.745483 
	C297.253937,115.456787 294.825409,118.364761 294.545990,120.541458 
	C294.144775,123.666931 296.496185,126.084000 300.184723,126.065971 
	C303.820923,126.048203 306.364807,124.754303 306.182983,119.713631 
z"/>
<path fill="#D7DBF6" opacity="1.000000" stroke="none" 
	d="
M87.545303,99.090668 
	C97.443733,101.383232 97.598824,101.447357 97.742111,110.885490 
	C97.827736,116.525978 97.696587,122.181320 97.368385,127.812828 
	C97.109169,132.260757 94.441612,134.908859 89.988518,135.026840 
	C83.348213,135.202805 76.685455,135.242157 70.056580,134.886322 
	C65.718681,134.653473 63.051548,132.045197 62.984943,127.434959 
	C62.881752,120.292458 62.935406,113.146828 62.757435,106.006645 
	C62.666569,102.361099 65.048035,100.585274 67.837532,100.256424 
	C74.215294,99.504562 80.672600,99.427544 87.545303,99.090668 
M89.761139,132.831284 
	C91.477585,131.269470 94.529602,129.824097 94.677681,128.125549 
	C95.296165,121.031433 95.274155,113.850052 94.929771,106.727600 
	C94.852776,105.134941 92.597778,102.407784 91.218628,102.325340 
	C83.954124,101.891052 76.632385,101.882874 69.371605,102.356613 
	C67.881668,102.453827 65.498856,105.149452 65.363388,106.798203 
	C64.874390,112.749641 64.968399,118.774246 65.230087,124.754257 
	C65.446686,129.704025 68.401588,132.542450 73.409927,132.791046 
	C78.559105,133.046631 83.728043,132.904053 89.761139,132.831284 
z"/>
<path fill="#DFE2F2" opacity="1.000000" stroke="none" 
	d="
M217.435287,110.196152 
	C219.958054,111.019531 222.480835,111.842903 225.360992,113.340317 
	C225.877258,119.020744 226.036133,124.027130 226.194992,129.033508 
	C226.194992,129.033508 226.052048,129.460175 225.601135,129.735519 
	C223.778519,129.976257 222.406830,129.941650 221.035126,129.907028 
	C221.012100,126.811226 221.008743,123.715126 220.961670,120.619690 
	C220.883377,115.471794 219.129700,114.581329 213.786377,117.746620 
	C212.802246,122.061127 212.336044,125.842323 211.847137,129.807755 
	C210.527695,129.890366 209.263290,129.969513 207.998886,130.048676 
	C207.763519,129.849304 207.554245,129.625534 207.359192,128.727020 
	C207.270523,117.715500 207.193741,107.354309 207.116959,96.993118 
	C207.181564,96.642166 207.246170,96.291206 207.637909,95.585396 
	C208.979309,95.109245 209.993546,94.987946 211.007797,94.866653 
	C211.007797,94.866646 211.485184,94.977104 211.837494,95.452362 
	C212.189804,101.568314 212.189804,107.209023 212.189804,113.602943 
	C213.639114,112.556213 214.256592,112.061508 214.921661,111.642334 
	C215.738770,111.127319 216.595612,110.675369 217.435287,110.196152 
z"/>
<path fill="#DBDEF1" opacity="1.000000" stroke="none" 
	d="
M122.288544,116.272522 
	C122.880661,115.869049 123.472786,115.465576 124.602783,114.675568 
	C125.886955,113.612656 126.633247,112.936272 127.379539,112.259888 
	C129.033127,112.120689 130.686722,111.981483 132.340317,111.842285 
	C132.445343,112.367134 132.550354,112.891983 132.655380,113.416832 
	C130.694260,115.101425 128.733124,116.786011 126.426109,118.767723 
	C128.731689,122.333923 131.022736,125.877632 133.369965,129.508240 
	C125.929886,132.275421 126.078339,124.368668 121.574753,121.575699 
	C121.182106,123.611015 120.564293,125.211830 120.630798,126.783691 
	C120.797836,130.731796 119.240181,131.971146 115.428055,129.815460 
	C115.226646,119.034241 115.156738,109.004089 115.186958,98.644714 
	C115.522881,97.208664 115.758667,96.101845 115.994461,94.995018 
	C115.994453,94.995018 116.000000,95.000000 116.442459,95.028587 
	C119.811317,94.622887 120.505882,96.122269 120.438652,98.757149 
	C120.300056,104.187714 120.344894,109.624947 120.463348,115.056183 
	C120.472466,115.474701 121.652664,115.867668 122.288544,116.272522 
z"/>
<path fill="#E3E6F6" opacity="1.000000" stroke="none" 
	d="
M141.401093,113.511200 
	C145.037674,110.007431 148.710587,109.554962 153.108139,111.277336 
	C155.047775,112.037025 157.532379,111.405342 160.077774,111.405342 
	C160.077774,117.673958 160.077774,124.065521 160.077774,130.996002 
	C155.054840,130.612289 150.088593,130.759811 145.372757,129.744339 
	C138.923767,128.355667 137.192917,121.033257 141.401093,113.511200 
M144.235779,118.916168 
	C145.288757,121.139603 145.854233,123.949005 147.569672,125.376190 
	C148.675201,126.295944 152.192719,125.915916 153.317902,124.798256 
	C154.653671,123.471397 155.320862,120.563240 154.894958,118.647812 
	C154.530045,117.006577 152.070450,114.534317 150.794815,114.680298 
	C148.591217,114.932457 146.587311,116.929527 144.235779,118.916168 
z"/>
<path fill="#E6E8F8" opacity="1.000000" stroke="none" 
	d="
M336.431580,111.161751 
	C337.963837,111.779015 339.316315,112.338081 340.092896,113.342468 
	C340.576691,113.968178 340.193085,115.266998 340.193390,116.263733 
	C340.194641,120.720299 340.193939,125.176872 340.193939,129.193680 
	C335.831635,129.614655 331.969574,130.314911 328.116913,130.266434 
	C324.311218,130.218552 321.006073,128.796158 319.665527,124.601112 
	C318.297729,120.320961 318.546906,116.333725 321.767761,113.033447 
	C324.739807,109.988098 328.384705,109.609467 332.362091,111.016937 
	C333.471100,111.409370 334.787292,111.216240 336.431580,111.161751 
M334.898407,122.970993 
	C335.401978,116.692169 332.897339,113.089600 328.714874,114.637993 
	C326.794922,115.348785 324.652191,117.757454 324.297668,119.703552 
	C323.987823,121.404076 325.730255,124.844398 327.124451,125.177261 
	C329.352783,125.709290 332.043579,124.304169 334.898407,122.970993 
z"/>
<path fill="#E0E4F6" opacity="1.000000" stroke="none" 
	d="
M240.215973,110.977623 
	C247.858170,109.280937 251.321350,111.240097 253.852570,118.440498 
	C249.933548,120.237152 245.995392,122.042587 241.054382,124.307770 
	C244.940613,125.865005 249.614426,123.104362 250.297028,128.386627 
	C244.224167,131.866714 238.116272,130.797409 235.085617,125.728661 
	C231.916840,120.428917 233.756104,114.773804 240.215973,110.977623 
M242.593567,119.290146 
	C244.454865,118.627151 246.316162,117.964149 248.642044,117.135666 
	C244.550140,113.788666 240.819580,113.980789 239.372833,117.022018 
	C239.000183,117.805359 239.191422,118.856941 239.123627,119.785301 
	C240.035522,119.735146 240.947433,119.684990 242.593567,119.290146 
z"/>
<path fill="#E1E4F3" opacity="1.000000" stroke="none" 
	d="
M362.127869,116.349068 
	C359.034088,113.012077 356.556274,114.804565 355.632355,117.912750 
	C354.630280,121.283897 354.881042,125.027443 354.357513,129.177734 
	C352.697906,129.829575 351.266235,129.912262 349.351440,130.022873 
	C349.351440,124.535385 349.546997,119.454849 349.278046,114.399025 
	C349.117126,111.373985 350.523499,110.735344 352.994812,110.834564 
	C353.556671,111.581146 354.118561,112.327736 354.709900,113.113495 
	C358.634369,110.014206 362.703552,108.695702 367.347778,113.316391 
	C367.722992,119.276779 367.722992,124.562775 367.722992,129.906403 
	C366.024628,129.906403 364.533051,129.906403 363.041443,129.906403 
	C363.041443,129.906403 363.023285,129.987183 363.009705,129.531403 
	C362.706726,124.833427 362.417297,120.591248 362.127869,116.349068 
z"/>
<path fill="#E0E5F3" opacity="1.000000" stroke="none" 
	d="
M176.511230,117.452194 
	C176.452682,121.707939 176.452682,125.514030 176.452682,129.663727 
	C174.665894,129.663727 173.165482,129.663727 171.437866,129.663727 
	C171.242554,125.268295 171.057831,121.111282 170.866699,116.809952 
	C166.521729,114.767647 166.646881,114.139717 170.090729,110.084137 
	C171.368973,108.578819 171.229263,105.869438 171.848343,103.231239 
	C172.080612,103.173073 172.822357,102.880424 173.580963,102.826859 
	C174.370193,102.771126 175.175735,102.946327 176.243195,103.045563 
	C176.362167,105.492149 176.472977,107.771049 176.600983,110.403671 
	C178.045380,110.722572 179.548737,111.054489 182.747223,111.760658 
	C180.085007,114.019699 178.327377,115.511124 176.511230,117.452194 
z"/>
<path fill="#E2E6F4" opacity="1.000000" stroke="none" 
	d="
M189.975281,119.003433 
	C189.366028,117.656219 188.524216,116.360359 188.212219,114.947510 
	C187.893204,113.502792 187.767761,111.856743 188.140533,110.453705 
	C188.753403,108.146980 189.836487,105.965179 191.005905,103.012054 
	C191.468323,102.989525 193.077438,102.911133 195.059372,102.814568 
	C195.235916,105.526688 195.393661,107.950035 195.565704,110.592972 
	C196.993195,110.828629 198.407547,111.062103 201.687256,111.603516 
	C199.226410,113.684677 197.794785,114.895401 195.288345,117.015114 
	C195.288345,120.077332 195.288345,124.673874 194.737885,129.645111 
	C192.849548,129.937912 191.511688,129.855988 190.173828,129.774078 
	C190.173828,129.774078 190.135834,129.912384 190.179260,129.464432 
	C190.140213,125.678795 190.057739,122.341118 189.975281,119.003433 
z"/>
<path fill="#E2E7FA" opacity="1.000000" stroke="none" 
	d="
M280.026001,125.801086 
	C280.254639,126.054214 280.483276,126.307343 280.724854,127.117508 
	C280.733887,128.380692 280.729980,129.086838 280.726105,129.792999 
	C280.726105,129.792999 280.861511,129.837387 280.406311,129.864594 
	C274.620728,129.985458 269.290375,130.079102 263.959991,130.172760 
	C263.594666,130.078323 263.229309,129.983902 262.569275,129.505890 
	C262.243225,128.145905 262.211853,127.169502 262.180481,126.193100 
	C262.583069,126.075645 262.985626,125.958183 264.148682,125.848495 
	C269.948090,125.837875 274.987061,125.819481 280.026001,125.801086 
z"/>
<path fill="#363E8E" opacity="1.000000" stroke="none" 
	d="
M292.029663,128.296173 
	C296.468658,131.106125 300.947052,131.204056 305.473389,128.112961 
	C306.485931,133.701996 302.923859,136.362137 297.234009,134.342621 
	C295.356140,133.676102 293.421143,131.696167 291.502319,134.881927 
	C291.465729,132.922241 291.735565,130.795227 292.029663,128.296173 
z"/>
<path fill="#3A418D" opacity="1.000000" stroke="none" 
	d="
M379.928253,130.196320 
	C384.154785,129.635071 388.246368,129.399887 392.393860,129.161484 
	C392.682373,133.677750 389.361053,136.323105 383.918640,134.497543 
	C382.552307,134.039230 381.213806,133.498108 379.487000,133.104309 
	C379.338745,132.316498 379.566040,131.419434 379.928253,130.196320 
z"/>
<path fill="#474E94" opacity="1.000000" stroke="none" 
	d="
M122.207611,115.719437 
	C121.652664,115.867668 120.472466,115.474701 120.463348,115.056183 
	C120.344894,109.624947 120.300056,104.187714 120.438652,98.757149 
	C120.505882,96.122269 119.811317,94.622887 116.440750,95.025810 
	C120.025230,92.977821 121.915581,94.280998 121.931267,98.726196 
	C121.950607,104.206413 122.057587,109.686317 122.207611,115.719437 
z"/>
<path fill="#3A418D" opacity="1.000000" stroke="none" 
	d="
M216.998901,110.124313 
	C216.595612,110.675369 215.738770,111.127319 214.921661,111.642334 
	C214.256592,112.061508 213.639114,112.556213 212.189804,113.602943 
	C212.189804,107.209023 212.189804,101.568314 212.081772,95.471115 
	C215.984344,97.560226 212.998825,101.560059 214.017212,104.700653 
	C214.621384,106.563797 215.698212,108.273674 216.998901,110.124313 
z"/>
<path fill="#27307B" opacity="1.000000" stroke="none" 
	d="
M363.105835,130.260040 
	C364.533051,129.906403 366.024628,129.906403 367.722992,129.906403 
	C367.722992,124.562775 367.722992,119.276779 367.588074,113.541924 
	C368.237762,114.731583 369.527374,116.320023 369.695923,118.019630 
	C369.995087,121.036629 369.556732,124.120590 369.532104,127.177383 
	C369.500366,131.116852 366.913727,132.541702 363.105835,130.260040 
z"/>
<path fill="#27307B" opacity="1.000000" stroke="none" 
	d="
M264.104919,130.537064 
	C269.290375,130.079102 274.620728,129.985458 280.399536,129.793671 
	C280.223511,130.379852 279.585327,131.667130 278.976868,131.653214 
	C274.064697,131.540817 269.158112,131.183746 264.104919,130.537064 
z"/>
<path fill="#3A418D" opacity="1.000000" stroke="none" 
	d="
M206.830673,97.298035 
	C207.193741,107.354309 207.270523,117.715500 207.235901,128.532654 
	C206.760178,127.937340 206.072586,126.883156 206.082001,125.835213 
	C206.166473,116.423836 206.373413,107.013550 206.830673,97.298035 
z"/>
<path fill="#3A418D" opacity="1.000000" stroke="none" 
	d="
M208.099258,130.391846 
	C209.263290,129.969513 210.527695,129.890366 211.847137,129.807755 
	C212.336044,125.842323 212.802246,122.061127 213.612228,118.090492 
	C213.952881,121.340508 214.255035,124.815346 213.861588,128.209564 
	C213.460007,131.674072 211.482544,133.020050 208.099258,130.391846 
z"/>
<path fill="#262E83" opacity="1.000000" stroke="none" 
	d="
M352.690125,110.608170 
	C350.523499,110.735344 349.117126,111.373985 349.278046,114.399025 
	C349.546997,119.454849 349.351440,124.535385 349.351440,130.022873 
	C351.266235,129.912262 352.697906,129.829575 354.534607,129.567505 
	C353.173492,129.867523 351.346405,130.820114 349.669830,130.604187 
	C348.952728,130.511826 348.152649,128.005157 348.078278,126.560089 
	C347.864624,122.408592 348.095764,118.236221 347.971863,114.077423 
	C347.874634,110.815475 348.934204,109.252327 352.690125,110.608170 
z"/>
<path fill="#3E458D" opacity="1.000000" stroke="none" 
	d="
M279.887512,125.439346 
	C274.987061,125.819481 269.948090,125.837875 264.450012,125.757423 
	C269.243622,125.464920 274.496307,125.271263 279.887512,125.439346 
z"/>
<path fill="#262E83" opacity="1.000000" stroke="none" 
	d="
M115.086823,98.973938 
	C115.156738,109.004089 115.226646,119.034241 115.186569,129.518188 
	C114.718224,128.079041 114.075165,126.189766 114.050827,124.292542 
	C113.946144,116.132065 114.023186,107.969269 114.306519,99.368813 
	C114.748268,98.944855 114.917542,98.959396 115.086823,98.973938 
z"/>
<path fill="#29307F" opacity="1.000000" stroke="none" 
	d="
M226.504395,128.936127 
	C226.036133,124.027130 225.877258,119.020744 225.595825,113.566376 
	C226.309494,114.365013 227.861206,115.618050 227.850128,116.857101 
	C227.814377,120.853752 227.203186,124.845261 226.504395,128.936127 
z"/>
<path fill="#262E83" opacity="1.000000" stroke="none" 
	d="
M397.947754,130.881577 
	C397.609314,125.051788 397.587189,118.966568 397.689636,112.425079 
	C397.964203,118.187927 398.114136,124.407036 397.947754,130.881577 
z"/>
<path fill="#363E8E" opacity="1.000000" stroke="none" 
	d="
M290.725769,114.124451 
	C290.732208,117.448624 290.368927,120.838287 290.016479,124.615799 
	C286.751617,121.296127 286.955841,117.694443 290.725769,114.124451 
z"/>
<path fill="#262E83" opacity="1.000000" stroke="none" 
	d="
M392.017670,138.915100 
	C393.464417,136.851791 395.328278,134.813553 397.459106,132.530701 
	C398.443237,136.476959 396.841095,138.823486 392.017670,138.915100 
z"/>
<path fill="#27307B" opacity="1.000000" stroke="none" 
	d="
M362.097839,116.856201 
	C362.417297,120.591248 362.706726,124.833427 363.050537,129.538376 
	C362.759186,125.788536 362.413483,121.575935 362.097839,116.856201 
z"/>
<path fill="#262E83" opacity="1.000000" stroke="none" 
	d="
M190.177460,130.119461 
	C191.511688,129.855988 192.849548,129.937912 194.591461,130.024963 
	C193.758698,134.250046 192.045685,133.196762 190.177460,130.119461 
z"/>
<path fill="#262E83" opacity="1.000000" stroke="none" 
	d="
M189.709961,119.309738 
	C190.057739,122.341118 190.140213,125.678795 190.250702,129.470566 
	C190.000702,126.488449 189.722687,123.052238 189.709961,119.309738 
z"/>
<path fill="#363E8E" opacity="1.000000" stroke="none" 
	d="
M300.729309,109.855072 
	C298.977631,110.460289 296.959686,110.785492 294.565796,111.179474 
	C295.414520,107.442200 298.131256,109.230331 300.729309,109.855072 
z"/>
<path fill="#29307F" opacity="1.000000" stroke="none" 
	d="
M221.193573,130.222412 
	C222.406830,129.941650 223.778519,129.976257 225.559052,129.956543 
	C224.847961,133.154999 223.153122,132.232346 221.193573,130.222412 
z"/>
<path fill="#27307B" opacity="1.000000" stroke="none" 
	d="
M262.124573,126.143600 
	C262.211853,127.169502 262.243225,128.145905 262.286682,129.487732 
	C261.853210,128.770294 261.407654,127.687439 261.240936,126.279900 
	C261.519775,125.955208 261.964111,125.987434 261.964111,125.987434 
	C261.964111,125.987434 262.068665,126.094093 262.124573,126.143600 
z"/>
<path fill="#3A418D" opacity="1.000000" stroke="none" 
	d="
M210.776062,94.643723 
	C209.993546,94.987946 208.979309,95.109245 207.593231,95.319626 
	C207.378113,91.880844 209.181030,93.890137 210.776062,94.643723 
z"/>
<path fill="#27307B" opacity="1.000000" stroke="none" 
	d="
M281.035370,129.807983 
	C280.729980,129.086838 280.733887,128.380692 280.851868,127.339836 
	C281.092194,127.944420 281.218414,128.883698 281.035370,129.807983 
z"/>
<path fill="#474E94" opacity="1.000000" stroke="none" 
	d="
M115.186958,98.644714 
	C114.917542,98.959396 114.748268,98.944855 114.327850,98.891342 
	C114.487572,97.607643 114.898453,96.362915 115.651901,95.056595 
	C115.758667,96.101845 115.522881,97.208664 115.186958,98.644714 
z"/>
<path fill="#474E94" opacity="1.000000" stroke="none" 
	d="
M126.980743,112.225304 
	C126.633247,112.936272 125.886955,113.612656 124.879326,114.444824 
	C125.272636,113.797302 125.927284,112.994011 126.980743,112.225304 
z"/>
<path fill="#363E8E" opacity="1.000000" stroke="none" 
	d="
M306.628296,110.989273 
	C306.081390,111.171501 305.148926,111.343994 304.073639,111.283493 
	C304.701447,111.026848 305.472076,111.003197 306.628296,110.989273 
z"/>
<path fill="#262E83" opacity="1.000000" stroke="none" 
	d="
M388.273560,139.486145 
	C388.782959,139.222000 389.521301,139.126633 390.633240,139.052261 
	C390.172058,139.267166 389.337250,139.461060 388.273560,139.486145 
z"/>
<path fill="#262E83" opacity="1.000000" stroke="none" 
	d="
M382.135925,139.230347 
	C382.438965,139.039276 382.888367,139.044891 383.660828,139.152954 
	C383.416687,139.312622 382.849487,139.369827 382.135925,139.230347 
z"/>
<path fill="#363E8E" opacity="1.000000" stroke="none" 
	d="
M303.745361,110.814056 
	C303.317505,110.940659 302.654938,110.808540 301.745789,110.440674 
	C302.169678,110.321724 302.840149,110.438530 303.745361,110.814056 
z"/>
<path fill="#262E83" opacity="1.000000" stroke="none" 
	d="
M378.188354,137.212875 
	C378.566010,137.144455 379.127838,137.308960 379.862610,137.729019 
	C379.481232,137.804993 378.926880,137.625397 378.188354,137.212875 
z"/>
<path fill="#262E83" opacity="1.000000" stroke="none" 
	d="
M380.193756,138.201141 
	C380.389282,138.098663 380.773926,138.228836 381.319580,138.624954 
	C381.114655,138.738525 380.748779,138.586166 380.193756,138.201141 
z"/>
<path fill="#3A418D" opacity="1.000000" stroke="none" 
	d="
M378.026855,134.233063 
	C378.057251,134.423325 377.827820,134.697128 377.334473,135.053009 
	C377.302734,134.862244 377.534882,134.589417 378.026855,134.233063 
z"/>
<path fill="#363E8E" opacity="1.000000" stroke="none" 
	d="
M291.198792,127.056091 
	C291.394836,127.016998 291.670624,127.230255 292.015259,127.704338 
	C291.815582,127.746262 291.547028,127.527351 291.198792,127.056091 
z"/>
<path fill="#363E8E" opacity="1.000000" stroke="none" 
	d="
M290.262207,125.769447 
	C290.485260,125.747604 290.768982,126.030136 291.128235,126.611755 
	C290.910156,126.631836 290.616516,126.352829 290.262207,125.769447 
z"/>
<path fill="#3E458D" opacity="1.000000" stroke="none" 
	d="
M261.884399,125.858284 
	C261.964111,125.987434 261.519775,125.955208 261.298767,125.938232 
	C261.271942,125.609604 261.514221,125.545563 261.884399,125.858284 
z"/>
<path fill="#363E8E" opacity="1.000000" stroke="none" 
	d="
M291.780487,113.119484 
	C291.843628,113.294052 291.686890,113.594757 291.291565,114.000130 
	C291.222229,113.818405 291.391418,113.532005 291.780487,113.119484 
z"/>
<path fill="#363E8E" opacity="1.000000" stroke="none" 
	d="
M293.987915,111.237274 
	C294.016022,111.438614 293.784058,111.701218 293.284637,112.016266 
	C293.254059,111.811981 293.490967,111.555260 293.987915,111.237274 
z"/>
<path fill="#2E3690" opacity="1.000000" stroke="none" 
	d="
M388.557678,125.949005 
	C384.576996,126.423759 381.445526,125.371162 381.134399,121.527962 
	C380.968506,119.478531 382.264160,116.159035 383.841827,115.418190 
	C385.719940,114.536285 389.144043,115.042839 390.943542,116.306931 
	C394.341949,118.694145 393.178040,123.174217 388.557678,125.949005 
z"/>
<path fill="#2C358E" opacity="1.000000" stroke="none" 
	d="
M306.184357,120.129852 
	C306.364807,124.754303 303.820923,126.048203 300.184723,126.065971 
	C296.496185,126.084000 294.144775,123.666931 294.545990,120.541458 
	C294.825409,118.364761 297.253937,115.456787 299.355347,114.745483 
	C302.954437,113.527222 305.712280,115.547752 306.184357,120.129852 
z"/>
<path fill="#2A3391" opacity="1.000000" stroke="none" 
	d="
M89.324738,132.883499 
	C83.728043,132.904053 78.559105,133.046631 73.409927,132.791046 
	C68.401588,132.542450 65.446686,129.704025 65.230087,124.754257 
	C64.968399,118.774246 64.874390,112.749641 65.363388,106.798203 
	C65.498856,105.149452 67.881668,102.453827 69.371605,102.356613 
	C76.632385,101.882874 83.954124,101.891052 91.218628,102.325340 
	C92.597778,102.407784 94.852776,105.134941 94.929771,106.727600 
	C95.274155,113.850052 95.296165,121.031433 94.677681,128.125549 
	C94.529602,129.824097 91.477585,131.269470 89.324738,132.883499 
M81.182716,125.157120 
	C85.929710,124.007133 88.888885,121.152832 88.836830,116.131035 
	C88.798401,112.424217 86.593559,109.349258 82.985397,109.139244 
	C79.829544,108.955559 75.809395,109.664108 73.596954,111.604393 
	C71.797180,113.182770 71.149895,117.369682 71.708328,120.040924 
	C72.557381,124.102318 76.411079,125.220222 81.182716,125.157120 
z"/>
<path fill="#2B348E" opacity="1.000000" stroke="none" 
	d="
M144.367706,118.555359 
	C146.587311,116.929527 148.591217,114.932457 150.794815,114.680298 
	C152.070450,114.534317 154.530045,117.006577 154.894958,118.647812 
	C155.320862,120.563240 154.653671,123.471397 153.317902,124.798256 
	C152.192719,125.915916 148.675201,126.295944 147.569672,125.376190 
	C145.854233,123.949005 145.288757,121.139603 144.367706,118.555359 
z"/>
<path fill="#2C358E" opacity="1.000000" stroke="none" 
	d="
M334.718628,123.344498 
	C332.043579,124.304169 329.352783,125.709290 327.124451,125.177261 
	C325.730255,124.844398 323.987823,121.404076 324.297668,119.703552 
	C324.652191,117.757454 326.794922,115.348785 328.714874,114.637993 
	C332.897339,113.089600 335.401978,116.692169 334.718628,123.344498 
z"/>
<path fill="#343A88" opacity="1.000000" stroke="none" 
	d="
M242.226440,119.462494 
	C240.947433,119.684990 240.035522,119.735146 239.123627,119.785301 
	C239.191422,118.856941 239.000183,117.805359 239.372833,117.022018 
	C240.819580,113.980789 244.550140,113.788666 248.642044,117.135666 
	C246.316162,117.964149 244.454865,118.627151 242.226440,119.462494 
z"/>
<path fill="#D3DAF4" opacity="1.000000" stroke="none" 
	d="
M80.772003,125.183182 
	C76.411079,125.220222 72.557381,124.102318 71.708328,120.040924 
	C71.149895,117.369682 71.797180,113.182770 73.596954,111.604393 
	C75.809395,109.664108 79.829544,108.955559 82.985397,109.139244 
	C86.593559,109.349258 88.798401,112.424217 88.836830,116.131035 
	C88.888885,121.152832 85.929710,124.007133 80.772003,125.183182 
M84.297401,120.719482 
	C86.646782,118.202637 87.438210,114.930260 84.601624,113.012428 
	C82.639198,111.685623 78.861549,111.542610 76.672668,112.553856 
	C75.084999,113.287346 73.836693,116.889503 74.090645,119.014931 
	C74.566673,122.998993 77.983704,123.570419 84.297401,120.719482 
z"/>
<path fill="#2D3590" opacity="1.000000" stroke="none" 
	d="
M83.966988,120.932922 
	C77.983704,123.570419 74.566673,122.998993 74.090645,119.014931 
	C73.836693,116.889503 75.084999,113.287346 76.672668,112.553856 
	C78.861549,111.542610 82.639198,111.685623 84.601624,113.012428 
	C87.438210,114.930260 86.646782,118.202637 83.966988,120.932922 
z"/>
</svg>